<svg width="140" height="35" viewBox="0 0 140 35" fill="none" xmlns="http://www.w3.org/2000/svg">
  <path fill-rule="evenodd" clip-rule="evenodd" d="M0.124023 33.7578V10.2672H3.24126V19.9529H15.3539V10.2672H18.4712V33.7355H15.3539V22.6916H3.26352V33.7355H0.124023V33.7578ZM23.3251 13.5403V10.2672H26.2197V13.5403H23.3251ZM23.3251 33.7578V16.7466H26.2197V33.7578H23.3251ZM29.5819 26.1428L34.2132 25.6752C34.4804 27.2116 35.0593 28.3471 35.9054 29.0819C36.7515 29.8167 37.9093 30.1729 39.3344 30.1729C40.8485 30.1729 41.984 29.8389 42.7633 29.1932C43.5426 28.5475 43.9212 27.8127 43.9212 26.9444C43.9212 26.3877 43.7653 25.8979 43.4313 25.5193C43.0973 25.1408 42.5407 24.7846 41.7391 24.4951C41.1824 24.317 39.9355 23.9607 37.9761 23.4709C35.4378 22.8474 33.6565 22.0681 32.6546 21.133C31.2073 19.8415 30.5171 18.2606 30.5171 16.4126C30.5171 15.2102 30.851 14.0746 31.519 13.0504C32.2093 12.0039 33.1667 11.2023 34.4359 10.668C35.7273 10.1113 37.2414 9.84412 39.0449 9.84412C41.984 9.84412 44.1883 10.4898 45.6802 11.7813C47.172 13.0949 47.929 14.8317 48.0181 17.0138L43.2754 17.1919C43.075 15.9673 42.652 15.0989 41.984 14.5868C41.316 14.0746 40.3363 13.7852 39.0004 13.7852C37.6422 13.7852 36.5734 14.0746 35.7941 14.6313C35.3042 15.0098 35.037 15.4997 35.037 16.1008C35.037 16.6575 35.282 17.1473 35.7496 17.5259C36.3285 18.038 37.798 18.5724 40.0914 19.129C42.3848 19.6634 44.0993 20.2201 45.1903 20.8212C46.2813 21.4001 47.1497 22.2017 47.7732 23.2037C48.3966 24.2279 48.7083 25.4526 48.7083 26.9444C48.7083 28.2803 48.3298 29.5495 47.5728 30.7296C46.838 31.9097 45.7692 32.7781 44.411 33.3347C43.0528 33.9136 41.3606 34.1808 39.3121 34.1808C36.3507 34.1808 34.0573 33.4906 32.4765 32.1323C30.851 30.7518 29.8936 28.7479 29.5819 26.1428ZM60.4202 16.7243V20.2868H57.3475V27.1893C57.3475 28.5698 57.3698 29.3936 57.4143 29.6385C57.4811 29.8612 57.6147 30.0616 57.8374 30.2175C58.0378 30.3733 58.2827 30.4401 58.5944 30.4401C59.0175 30.4401 59.6187 30.2843 60.398 30.0171L60.7765 33.5128C59.73 33.9581 58.5722 34.1808 57.2362 34.1808C56.4346 34.1808 55.6998 34.0472 55.0541 33.78C54.4084 33.5128 53.9186 33.1566 53.6068 32.7113C53.3174 32.2882 53.0947 31.687 52.9834 30.9522C52.8943 30.4179 52.8498 29.3714 52.8498 27.7682V20.3091H50.8013V16.7466H52.8498V13.3621L57.3475 10.7125V16.7466H60.4202V16.7243ZM66.9219 21.9791L62.8472 21.2666C63.3148 19.5966 64.0941 18.372 65.2074 17.5704C66.343 16.7911 68.0129 16.3903 70.2173 16.3903C72.2212 16.3903 73.713 16.613 74.6927 17.1028C75.6724 17.5704 76.3627 18.1716 76.7634 18.9064C77.1642 19.6411 77.3646 20.9771 77.3646 22.9142L77.2978 28.169C77.2978 29.6608 77.3646 30.7518 77.5205 31.4644C77.6541 32.1769 77.9435 32.9562 78.3221 33.7578H73.8689C73.7353 33.4683 73.6017 33.023 73.4458 32.4441C73.379 32.1769 73.3122 31.9987 73.2677 31.9097C72.5106 32.6667 71.6868 33.2234 70.8184 33.6019C69.9501 33.9804 69.0149 34.1585 68.0352 34.1585C66.2984 34.1585 64.918 33.691 63.916 32.7335C62.914 31.7983 62.4019 30.596 62.4019 29.1264C62.4019 28.169 62.6246 27.3229 63.0921 26.5658C63.5597 25.8311 64.1832 25.2299 65.0293 24.8291C65.8531 24.4506 67.0332 24.0943 68.5918 23.7826C70.6848 23.4041 72.1544 23.0256 72.956 22.6916V22.2463C72.956 21.3556 72.7333 20.7544 72.3325 20.3759C71.9095 19.9974 71.0856 19.797 69.9055 19.797C69.104 19.797 68.4805 19.9751 68.0352 20.2868C67.5453 20.6208 67.1891 21.1775 66.9219 21.9791ZM72.956 25.6307C72.377 25.8088 71.4641 26.0537 70.2173 26.3209C68.9704 26.5881 68.1688 26.8553 67.768 27.1002C67.1891 27.5233 66.8774 28.0354 66.8774 28.6811C66.8774 29.3268 67.1 29.8612 67.5899 30.3288C68.0575 30.7964 68.6364 31.019 69.3711 31.019C70.195 31.019 70.9743 30.7518 71.7091 30.2175C72.2434 29.8167 72.5997 29.3268 72.7778 28.7256C72.8892 28.3471 72.956 27.5901 72.956 26.5213V25.6307ZM79.8361 16.7243H82.3299V15.4551C82.3299 14.0078 82.4858 12.9613 82.7975 12.2488C83.1092 11.5363 83.6659 10.9574 84.4897 10.5121C85.3136 10.0668 86.3601 9.84412 87.607 9.84412C88.8984 9.84412 90.1675 10.0222 91.3922 10.423L90.8133 13.5403C90.0785 13.3621 89.366 13.2731 88.7203 13.2731C88.0523 13.2731 87.5847 13.4289 87.273 13.7407C86.9613 14.0524 86.8499 14.6313 86.8499 15.5219V16.7243H90.2121V20.2646H86.8499V33.7355H82.3522V20.2646H79.8584V16.7243H79.8361ZM90.7465 16.7243H93.2402V15.4551C93.2402 14.0078 93.3961 12.9613 93.7078 12.2488C94.0196 11.5363 94.5762 10.9574 95.4 10.5121C96.2239 10.0668 97.2704 9.84412 98.5173 9.84412C99.8087 9.84412 101.078 10.0222 102.302 10.423L101.724 13.5403C100.989 13.3621 100.276 13.2731 99.6083 13.2731C98.9403 13.2731 98.4727 13.4289 98.161 13.7407C97.8938 14.0524 97.738 14.6313 97.738 15.5219V16.7243H101.1V20.2646H97.738V33.7355H93.2402V20.2646H90.7465V16.7243V16.7243Z" fill="#101828"/>
  <path fill-rule="evenodd" clip-rule="evenodd" d="M120.092 6.34859C119.246 3.45402 116.441 3.0087 114.103 4.61185C111.698 6.25953 110.095 9.82209 110.919 12.6721C111.765 15.5667 114.57 16.012 116.908 14.4311C119.313 12.7835 120.916 9.19864 120.092 6.34859Z" fill="#5D54FB"/>
  <path fill-rule="evenodd" clip-rule="evenodd" d="M110.963 32.8895C111.921 32.0656 113.19 31.2863 114.214 30.6184L116.218 29.3715C119.113 23.7382 123.009 18.4611 127.106 13.6517C130.847 9.22077 135.211 4.58945 139.976 1.24955L139.174 0.180786C134.075 2.87497 129.4 6.54885 125.191 10.4899C120.76 14.6537 116.686 19.2627 113.413 24.3839L113.279 24.562L112.344 22.6026C111.654 21.1776 109.739 17.4146 107.802 17.4146C105.865 17.4146 104.016 18.7951 102.658 20.1088C103.861 20.5319 104.863 21.3334 105.664 22.3131C106.911 23.7827 107.913 25.7866 108.715 27.5456L109.472 29.1933C109.961 30.3734 110.563 31.6871 110.963 32.8895Z" fill="#5D54FB"/>
</svg>
